<svg xmlns="http://www.w3.org/2000/svg" viewBox="0.64 5.42797 34.66 14.87">
	<path d="M1.3 20.2 c-0.36 0 -0.66 -0.3 -0.66 -0.66 c0 -0.38 0.3 -0.68 0.66 -0.68 l2.64 0 c2.1 0.02 3.28 -1.5 3.28 -3.34 l0 -9.36 c0 -0.36 0.3 -0.66 0.68 -0.66 c0.36 0 0.66 0.3 0.66 0.66 l0 9.36 c0 2.56 -1.72 4.68 -4.62 4.68 l-2.64 0 l0 0 z M4.56 15.52 l0 -9.36 c0 -0.36 0.3 -0.66 0.66 -0.66 s0.66 0.3 0.66 0.66 l0 9.36 c0 1.14 -0.9 2 -2.02 2 l-2.36 0 c-0.38 0 -0.68 -0.3 -0.68 -0.66 c0 -0.38 0.3 -0.68 0.68 -0.68 l2.36 0 c0.38 0 0.7 -0.26 0.7 -0.66 l0 0 z M19.240000000000002 6.02 c0.82 0.28 0.38 1.56 -0.46 1.26 c-1.8 -0.64 -3.96 -0.98 -5.28 0.48 c-1.08 1.14 -1.36 3.24 0.08 4.48 c1.74 1.56 4.22 1.22 4.36 3.34 c0.06 1.12 -0.92 1.94 -2 2.02 c-1.3 0.08 -2.92 -0.24 -4.24 -1.2 c-0.7 -0.5 0.08 -1.58 0.78 -1.08 c1.54 1.12 4.24 1.32 4.12 0.32 c-0.08 -0.94 -2.06 -0.78 -3.92 -2.4 c-2.9 -2.54 -1.14 -7.6 2.98 -7.8 c1.2 -0.06 2.18 0.1 3.58 0.58 l0 0 z M11.440000000000001 19.24 c-0.76 -0.4 -0.14 -1.58 0.64 -1.18 c3.08 1.64 7.26 1.22 7.26 -2.48 c0 -2.74 -3.6 -3.24 -4.62 -4.06 c-1.6 -1.26 -0.76 -4.8 4.22 -2.78 c0.78 0.32 0.3 1.56 -0.52 1.22 c-3.02 -1.22 -3.54 0.02 -2.88 0.54 c0.74 0.56 5.12 1.36 5.12 5.08 c0 3.66 -3.24 5.38 -6.98 4.48 c-0.68 -0.14 -1.46 -0.4 -2.24 -0.82 l0 0 z M15.82 16.28 l0 0 l0 0 z M24.380000000000003 19.54 c0 0.36 -0.28 0.68 -0.66 0.68 c-0.36 0 -0.66 -0.32 -0.66 -0.68 l0 -13.38 c0 -0.36 0.3 -0.64 0.66 -0.64 c0.38 0 0.66 0.28 0.66 0.64 l0 13.38 l0 0 z M35.3 19.54 c0 0.36 -0.3 0.68 -0.68 0.68 c-0.36 0 -0.66 -0.32 -0.66 -0.68 l0 -13.38 c0 -0.36 0.3 -0.64 0.66 -0.64 c0.38 0 0.68 0.28 0.68 0.64 l0 13.38 l0 0 z M32.760000000000005 19.16 c0.2 0.3 0.12 0.7 -0.16 0.94 c-0.32 0.2 -0.72 0.12 -0.94 -0.18 l-4.6 -6.58 l0 6.2 c0 0.36 -0.3 0.66 -0.68 0.66 c-0.36 0 -0.64 -0.3 -0.64 -0.66 l0 -8.32 c0 -0.22 0.08 -0.42 0.28 -0.54 c0.28 -0.24 0.72 -0.16 0.92 0.16 l5.82 8.32 l0 0 z M25.6 6.5600000000000005 c-0.22 -0.32 -0.14 -0.72 0.16 -0.92 c0.3 -0.24 0.72 -0.14 0.92 0.16 l4.6 6.58 l0 -6.22 c0 -0.36 0.32 -0.64 0.68 -0.64 s0.66 0.28 0.66 0.64 l0 8.32 c0 0.22 -0.1 0.44 -0.3 0.56 c-0.3 0.22 -0.7 0.14 -0.92 -0.16 l-5.8 -8.32 l0 0 z" fill="#64726a"/>
</svg>